<svg xmlns="http://www.w3.org/2000/svg" width="31.438" height="31.44" viewBox="0 0 31.438 31.44">
  <metadata><?xpacket begin="﻿" id="W5M0MpCehiHzreSzNTczkc9d"?>
<x:xmpmeta xmlns:x="adobe:ns:meta/" x:xmptk="Adobe XMP Core 5.6-c138 79.159824, 2016/09/14-01:09:01        ">
   <rdf:RDF xmlns:rdf="http://www.w3.org/1999/02/22-rdf-syntax-ns#">
      <rdf:Description rdf:about=""/>
   </rdf:RDF>
</x:xmpmeta>
                                                                                                    
                                                                                                    
                                                                                                    
                                                                                                    
                                                                                                    
                                                                                                    
                                                                                                    
                                                                                                    
                                                                                                    
                                                                                                    
                                                                                                    
                                                                                                    
                                                                                                    
                                                                                                    
                                                                                                    
                                                                                                    
                                                                                                    
                                                                                                    
                                                                                                    
                                                                                                    
                           
<?xpacket end="w"?></metadata>
<defs>
    <style>
      .cls-1 {
        fill: #fff;
        fill-rule: evenodd;
      }
    </style>
  </defs>
  <path id="instagram" class="cls-1" d="M61.6,4569.53c4.2,0,4.695.02,6.352,0.09a8.519,8.519,0,0,1,2.919.55,4.8,4.8,0,0,1,1.807,1.17,4.909,4.909,0,0,1,1.176,1.81,8.7,8.7,0,0,1,.541,2.92c0.076,1.66.092,2.15,0.092,6.35s-0.016,4.69-.092,6.35a8.7,8.7,0,0,1-.541,2.92,4.909,4.909,0,0,1-1.176,1.81,4.8,4.8,0,0,1-1.807,1.17,8.587,8.587,0,0,1-2.919.54c-1.657.08-2.154,0.1-6.352,0.1s-4.695-.02-6.352-0.1a8.585,8.585,0,0,1-2.919-.54,4.794,4.794,0,0,1-1.808-1.17,4.91,4.91,0,0,1-1.176-1.81,8.7,8.7,0,0,1-.541-2.92c-0.076-1.66-.092-2.15-0.092-6.35s0.016-4.69.092-6.35a8.7,8.7,0,0,1,.541-2.92,4.91,4.91,0,0,1,1.176-1.81,4.794,4.794,0,0,1,1.808-1.17,8.518,8.518,0,0,1,2.919-.55c1.658-.07,2.155-0.09,6.352-0.09m0-2.83c-4.269,0-4.8.02-6.481,0.1a11.344,11.344,0,0,0-3.816.73,8.03,8.03,0,0,0-4.6,4.59,11.583,11.583,0,0,0-.731,3.82c-0.077,1.68-.095,2.21-0.095,6.48s0.018,4.8.095,6.48a11.583,11.583,0,0,0,.731,3.82,8.03,8.03,0,0,0,4.6,4.59,11.344,11.344,0,0,0,3.816.73c1.677,0.08,2.212.1,6.481,0.1s4.8-.02,6.481-0.1a11.344,11.344,0,0,0,3.816-.73,8.031,8.031,0,0,0,4.6-4.59,11.583,11.583,0,0,0,.731-3.82c0.076-1.68.095-2.21,0.095-6.48s-0.018-4.8-.095-6.48a11.583,11.583,0,0,0-.731-3.82,8.031,8.031,0,0,0-4.6-4.59,11.344,11.344,0,0,0-3.816-.73c-1.677-.08-2.212-0.1-6.481-0.1h0Zm0,7.65a8.07,8.07,0,1,0,8.072,8.07A8.069,8.069,0,0,0,61.6,4574.35Zm0,13.31a5.24,5.24,0,1,1,5.24-5.24A5.242,5.242,0,0,1,61.6,4587.66Zm10.277-13.63a1.886,1.886,0,1,1-1.886-1.89A1.891,1.891,0,0,1,71.873,4574.03Z" transform="translate(-45.875 -4566.69)"/>
</svg>
