<?xml version="1.0" encoding="UTF-8"?>
<!DOCTYPE svg PUBLIC "-//W3C//DTD SVG 1.1//EN" "http://www.w3.org/Graphics/SVG/1.1/DTD/svg11.dtd">
<!-- Creator: CorelDRAW X8 -->
<svg xmlns="http://www.w3.org/2000/svg" xml:space="preserve" width="108.684mm" height="25.4073mm" version="1.1" style="shape-rendering:geometricPrecision; text-rendering:geometricPrecision; image-rendering:optimizeQuality; fill-rule:evenodd; clip-rule:evenodd"
viewBox="0 0 2189 512"
 xmlns:xlink="http://www.w3.org/1999/xlink">
 <defs>
  <style type="text/css">
   <![CDATA[
    .fil0 {fill:#FEFEFE;fill-rule:nonzero}
   ]]>
  </style>
 </defs>
 <g id="Layer_x0020_1">
  <metadata id="CorelCorpID_0Corel-Layer"/>
  <g id="_684690552">
   <path class="fil0" d="M2040 207l0 46c7,0 20,0 27,0 12,0 22,-10 22,-23 0,-13 -10,-23 -22,-23 -7,0 -20,0 -27,0zm-111 174l-199 0 0 -235 199 0 0 61 -109 0 0 29 103 0 0 54 -103 0 0 30 109 0 0 61zm-218 0l-185 0 0 -235 94 0 0 174 91 0 0 61zm-931 0l-39 -143 -6 143 -98 0 26 -234 113 0 31 124 31 -124 113 0 27 234 -98 0 -7 -143 -38 143c-18,0 -37,0 -55,0zm1398 -146c-3,13 -9,25 -18,35 -8,8 -18,14 -30,18l59 93 -103 0 -46 -95 0 95 -90 0 0 -235 114 0c21,1 42,1 61,7 16,5 31,15 41,28 4,5 7,11 9,17 5,12 5,24 3,37zm-1098 108c-3,13 -6,25 -9,38l-92 0 -1 0 75 -234c41,0 81,0 121,0l70 219 61 -105 -71 -114 106 0 33 68 34 -68 106 0 -72 114 71 120 -97 0 -42 -79 -42 79c-58,0 -117,0 -175,0 -3,-13 -6,-25 -9,-38 -42,0 -31,0 -67,0zm54 -56c-7,-26 -13,-54 -20,-86 -8,32 -14,60 -21,86 20,0 16,0 41,0z"/>
   <path class="fil0" d="M256 40c119,0 216,97 216,216 0,119 -97,216 -216,216 -119,0 -216,-97 -216,-216 0,-119 97,-216 216,-216zm0 -40c-141,0 -256,115 -256,256 0,141 115,256 256,256 141,0 256,-115 256,-256 0,-141 -115,-256 -256,-256zm-28 126l-33 49 -13 0 0 -49 46 0zm74 0l-82 121 0 1 0 -73 0 0 33 -49 49 0zm2 32l0 72 -102 151 -20 0 0 -49 38 0 0 -48 0 -1 84 -125zm38 174l0 49 -115 0 77 -114 0 65 38 0z"/>
  </g>
 </g>
</svg>
