<svg xmlns="http://www.w3.org/2000/svg" width="35.062" height="28.47" viewBox="0 0 35.062 28.47">
  <metadata><?xpacket begin="﻿" id="W5M0MpCehiHzreSzNTczkc9d"?>
<x:xmpmeta xmlns:x="adobe:ns:meta/" x:xmptk="Adobe XMP Core 5.6-c138 79.159824, 2016/09/14-01:09:01        ">
   <rdf:RDF xmlns:rdf="http://www.w3.org/1999/02/22-rdf-syntax-ns#">
      <rdf:Description rdf:about=""/>
   </rdf:RDF>
</x:xmpmeta>
                                                                                                    
                                                                                                    
                                                                                                    
                                                                                                    
                                                                                                    
                                                                                                    
                                                                                                    
                                                                                                    
                                                                                                    
                                                                                                    
                                                                                                    
                                                                                                    
                                                                                                    
                                                                                                    
                                                                                                    
                                                                                                    
                                                                                                    
                                                                                                    
                                                                                                    
                                                                                                    
                           
<?xpacket end="w"?></metadata>
<defs>
    <style>
      .cls-1 {
        fill: #fff;
        fill-rule: evenodd;
      }
    </style>
  </defs>
  <path id="twitter" class="cls-1" d="M145.863,4572.05a14.319,14.319,0,0,1-4.131,1.13,7.217,7.217,0,0,0,3.162-3.98,14.453,14.453,0,0,1-4.567,1.75,7.2,7.2,0,0,0-12.443,4.92,7.253,7.253,0,0,0,.186,1.64,20.429,20.429,0,0,1-14.825-7.52,7.2,7.2,0,0,0,2.226,9.6,7.06,7.06,0,0,1-3.258-.9c0,0.03,0,.07,0,0.1a7.2,7.2,0,0,0,5.77,7.05,7.386,7.386,0,0,1-1.895.25,7.531,7.531,0,0,1-1.353-.13,7.2,7.2,0,0,0,6.719,5,14.42,14.42,0,0,1-8.933,3.07,13.9,13.9,0,0,1-1.716-.1,20.372,20.372,0,0,0,11.026,3.24c13.23,0,20.464-10.96,20.464-20.47q0-.465-0.02-0.93A14.592,14.592,0,0,0,145.863,4572.05Z" transform="translate(-110.813 -4568.69)"/>
</svg>
