<svg xmlns="http://www.w3.org/2000/svg" width="33.782" height="23.57" viewBox="0 0 33.782 23.57">
  <metadata><?xpacket begin="﻿" id="W5M0MpCehiHzreSzNTczkc9d"?>
<x:xmpmeta xmlns:x="adobe:ns:meta/" x:xmptk="Adobe XMP Core 5.6-c138 79.159824, 2016/09/14-01:09:01        ">
   <rdf:RDF xmlns:rdf="http://www.w3.org/1999/02/22-rdf-syntax-ns#">
      <rdf:Description rdf:about=""/>
   </rdf:RDF>
</x:xmpmeta>
                                                                                                    
                                                                                                    
                                                                                                    
                                                                                                    
                                                                                                    
                                                                                                    
                                                                                                    
                                                                                                    
                                                                                                    
                                                                                                    
                                                                                                    
                                                                                                    
                                                                                                    
                                                                                                    
                                                                                                    
                                                                                                    
                                                                                                    
                                                                                                    
                                                                                                    
                                                                                                    
                           
<?xpacket end="w"?></metadata>
<defs>
    <style>
      .cls-1 {
        fill: #fff;
        fill-rule: evenodd;
      }
    </style>
  </defs>
  <path id="youtube_alt" class="cls-1" d="M211.346,4575.11a4.269,4.269,0,0,0-3.653-3.32,113.563,113.563,0,0,0-12.652-.47,113.563,113.563,0,0,0-12.653.47,4.266,4.266,0,0,0-3.652,3.32,54.193,54.193,0,0,0-.007,15.97,4.266,4.266,0,0,0,3.652,3.32,113.581,113.581,0,0,0,12.653.47,113.554,113.554,0,0,0,12.652-.47,4.269,4.269,0,0,0,3.653-3.32A54.466,54.466,0,0,0,211.346,4575.11Zm-19.854,12.59v-9.37l8.933,4.69Z" transform="translate(-178.156 -4571.31)"/>
</svg>
